PathFileType  4	(X/Y/Z) C:\Users\antoi\Documents\MyRepositories\mobilecap\ResultsAnalysis
DataRate	CameraRate	NumFrames	NumMarkers	Units	OrigDataRate	OrigDataStartFrame	OrigNumFrames
100.0	100.0	4	51	mm	100.0	1	1774
Frame#	Time	r_knee			r_shank_antsup			r_ankle			r_calc			r_5meta			r_toe			L_knee			L_shank_antsup			L_ankle			L_calc			L_5meta			L_toe			r_sh2			r_sh3			r_sh4			L_sh2			L_sh3			r_thigh1			r_thigh2			r_thigh3			r_thigh4			r_thigh5			L_thigh1			L_thigh2			L_thigh3			L_thigh4			r.ASIS			r.PSIS			L.ASIS			L.PSIS			C7			R_Shoulder			L_Shoulder			R_Sternum			L_Sternum			R_humerus			R_elbow_med			R_elbow_lat			R_forearm			R_wrist_radius			R_wrist_ulna			L_humerus			L_elbow_med			L_elbow_lat			L_forearm			L_wrist_radius			L_wrist_ulna			R_HJC			L_HJC			R_HJC_reg			L_HJC_reg			
		X1	Y1	Z1	X2	Y2	Z2	X3	Y3	Z3	X4	Y4	Z4	X5	Y5	Z5	X6	Y6	Z6	X7	Y7	Z7	X8	Y8	Z8	X9	Y9	Z9	X10	Y10	Z10	X11	Y11	Z11	X12	Y12	Z12	X13	Y13	Z13	X14	Y14	Z14	X15	Y15	Z15	X16	Y16	Z16	X17	Y17	Z17	X18	Y18	Z18	X19	Y19	Z19	X20	Y20	Z20	X21	Y21	Z21	X22	Y22	Z22	X23	Y23	Z23	X24	Y24	Z24	X25	Y25	Z25	X26	Y26	Z26	X27	Y27	Z27	X28	Y28	Z28	X29	Y29	Z29	X30	Y30	Z30	X31	Y31	Z31	X32	Y32	Z32	X33	Y33	Z33	X34	Y34	Z34	X35	Y35	Z35	X36	Y36	Z36	X37	Y37	Z37	X38	Y38	Z38	X39	Y39	Z39	X40	Y40	Z40	X41	Y41	Z41	X42	Y42	Z42	X43	Y43	Z43	X44	Y44	Z44	X45	Y45	Z45	X46	Y46	Z46	X47	Y47	Z47	X48	Y48	Z48	X49	Y49	Z49	X50	Y50	Z50	X51	Y51	Z51	

1	0.00000000	-249.20013	487.86127	-429.93751	-187.99942	403.54023	-436.60682	-297.91711	91.41425	-433.19020	-361.42816	57.30342	-475.57920	-172.69165	47.20301	-405.17523	-146.85415	76.62767	-462.23545	-253.45619	487.50334	-802.91417	-185.80957	413.14578	-785.19677	-287.75510	96.58303	-782.43518	-362.69003	54.22737	-741.13775	-177.12328	40.52382	-805.86948	-138.22053	69.10098	-746.50049	-207.75229	291.18251	-434.67707	-251.98271	412.18500	-395.57197	-276.33239	299.86752	-388.22108	-262.35043	434.95541	-829.00976	-280.72798	314.87050	-836.12347	-519.55985	549.82369	-433.10254	-412.80859	553.44758	-441.67900	-382.94636	508.06323	-397.78528	-514.15542	443.31099	-391.84428	-399.09903	451.83672	-406.66429	-486.01008	458.57599	-837.37644	-356.53768	570.66098	-777.44681	-495.53770	555.25739	-788.67364	-353.56376	469.03005	-815.84339	-557.79284	593.25375	-490.16609	-766.19380	571.85357	-568.18530	-568.82895	581.54463	-746.57250	-767.24277	570.26170	-658.38391	-739.50245	1037.40490	-607.96745	-655.96676	1003.68511	-443.28363	-657.30140	1007.15673	-766.34871	-612.14645	969.75045	-589.18722	-614.00484	971.83904	-631.07202	-626.01575	871.38767	-389.57134	-721.15724	677.23145	-433.63893	-713.95143	682.50475	-357.64516	-619.21075	703.33996	-363.31635	-480.27935	749.26573	-445.37626	-475.58193	707.31408	-419.29064	-638.06908	864.88566	-827.76413	-724.81050	676.34851	-779.68005	-705.38118	685.40484	-862.91357	-630.12245	700.77232	-856.10194	-481.20839	730.03494	-781.53684	-479.96926	687.56954	-810.70210	-618.31158	487.53921	-511.49767	-623.44274	480.80039	-700.87086	-612.40524	495.82592	-524.08110	-614.37672	492.83410	-693.60435	
2	0.01000000	-249.12220	487.95926	-429.84974	-188.00127	403.55110	-436.59638	-297.97236	91.38950	-433.28746	-361.41147	57.30649	-475.60202	-172.69515	47.20859	-405.18447	-146.88238	76.63603	-462.24067	-253.45035	487.52596	-802.91427	-185.85002	413.14342	-785.19281	-287.77513	96.57933	-782.39068	-362.68746	54.22626	-741.15484	-177.13206	40.55093	-805.88087	-138.24227	69.09032	-746.54859	-207.66971	291.11565	-434.71853	-251.96044	412.18482	-395.52805	-276.24705	299.90451	-388.12310	-262.36858	434.94235	-829.00245	-280.69721	315.00236	-836.26133	-519.52745	549.78551	-433.11238	-412.74709	553.48428	-441.80242	-382.93111	508.04146	-397.79809	-514.17054	443.28220	-391.87907	-399.08216	451.86380	-406.59483	-486.00864	458.58602	-837.37158	-356.51107	570.66385	-777.38402	-495.56420	555.30457	-788.64209	-353.56131	469.03679	-815.84340	-557.81682	593.25773	-490.18315	-766.19483	571.84616	-568.18732	-568.78656	581.54995	-746.50123	-767.31644	570.20753	-658.35039	-739.41514	1037.40918	-607.94488	-655.86145	1003.65343	-443.28766	-657.25964	1007.17955	-766.41041	-612.27785	969.93306	-589.39833	-613.99590	971.82501	-631.11226	-626.02665	871.34095	-389.58038	-721.16170	677.23167	-433.64355	-713.98294	682.50061	-357.63001	-619.24592	703.31498	-363.35355	-480.26678	749.15440	-445.36178	-475.61536	707.25952	-419.26485	-638.10037	864.86300	-827.79740	-725.19348	676.36351	-779.44060	-705.46918	685.39267	-862.90155	-630.27143	700.78390	-856.08524	-481.28337	729.95264	-781.53303	-480.06600	687.51172	-810.80767	-618.32069	487.54033	-511.46603	-623.43363	480.78831	-700.83924	-612.34501	495.91140	-523.99649	-614.45305	492.83164	-693.45640	
3	0.02000000	-249.11734	487.96169	-429.84698	-188.00682	403.55378	-436.58663	-297.97210	91.38714	-433.28116	-361.40243	57.31381	-475.60120	-172.70226	47.20968	-405.18567	-146.88531	76.63386	-462.22930	-253.45352	487.54097	-802.91359	-185.85040	413.13067	-785.17335	-287.75892	96.60526	-782.43686	-362.68522	54.23583	-741.16535	-177.15788	40.59351	-805.89437	-138.24789	69.09136	-746.57138	-207.63723	291.10467	-434.73140	-251.96132	412.18210	-395.54627	-276.22795	299.90607	-388.10047	-262.37249	434.95080	-829.00462	-280.72102	314.96491	-836.19571	-519.54989	549.80108	-433.10048	-412.73642	553.53073	-441.81098	-382.93258	508.05936	-397.79538	-514.22398	443.36670	-391.74706	-399.06842	451.80214	-406.64936	-486.01600	458.60235	-837.37675	-356.50650	570.67881	-777.37005	-495.59863	555.34871	-788.64503	-353.56525	469.05458	-815.84033	-557.87154	593.26354	-490.21073	-766.20775	571.82586	-568.19576	-568.83367	581.63106	-746.53861	-767.32855	570.19615	-658.35592	-739.33257	1037.40288	-607.91974	-655.79524	1003.60747	-443.24906	-657.18332	1007.20748	-766.47197	-611.68332	969.16554	-588.57890	-613.97196	971.81070	-631.12884	-626.02462	871.30559	-389.59153	-721.16773	677.23105	-433.65342	-713.99045	682.44790	-357.71304	-619.27068	703.27295	-363.37405	-480.25974	749.05687	-445.34771	-475.64967	707.07644	-419.37762	-638.12515	864.83230	-827.83527	-725.35197	676.37644	-779.35665	-705.55501	685.38823	-862.88927	-630.38963	700.80181	-856.12713	-481.36398	729.87503	-781.54249	-480.16067	687.45698	-810.96424	-618.31717	487.53926	-511.51462	-623.44204	480.83819	-700.88931	-612.37172	495.93547	-524.03650	-614.47837	492.87225	-693.50071	
4	0.03000000	-249.15003	487.91771	-429.88723	-188.01014	403.54863	-436.58504	-297.93760	91.41441	-433.22222	-361.40277	57.31545	-475.58568	-172.70582	47.20784	-405.18075	-146.86006	76.63281	-462.22977	-253.46821	487.55286	-802.90409	-185.83417	413.13979	-785.16853	-287.72383	96.64107	-782.54946	-362.68510	54.25924	-741.16251	-177.15852	40.59533	-805.89396	-138.23268	69.09726	-746.58130	-207.61836	291.12393	-434.74846	-251.96820	412.16784	-395.60246	-276.25148	299.90510	-388.13373	-262.37436	434.96366	-829.00970	-280.74648	314.89789	-836.08891	-519.63021	549.83740	-433.07218	-412.77382	553.53039	-441.74427	-382.94155	508.06733	-397.79711	-514.29205	443.46378	-391.58555	-399.06128	451.72564	-406.74126	-486.02538	458.60794	-837.37536	-356.52596	570.69451	-777.38056	-495.62153	555.38365	-788.65255	-353.57347	469.07583	-815.83071	-557.93411	593.25872	-490.24573	-766.22956	571.80701	-568.20298	-568.95779	581.76230	-746.54462	-767.32591	570.19749	-658.37470	-739.23633	1037.40681	-607.93218	-655.72777	1003.50021	-443.23041	-657.07683	1007.19998	-766.48932	-610.72088	967.93067	-587.27144	-613.91200	971.77202	-631.15807	-625.99648	871.26811	-389.60313	-721.18621	677.24743	-433.65241	-713.99540	682.37776	-357.83916	-619.28892	703.20994	-363.37859	-480.25655	748.97160	-445.34604	-475.69212	706.84048	-419.51373	-638.13411	864.78812	-827.86198	-725.34883	676.37905	-779.37218	-705.63897	685.38649	-862.89025	-630.48309	700.79093	-856.17955	-481.43339	729.76097	-781.56775	-480.26306	687.33842	-811.03968	-618.32013	487.53039	-511.58485	-623.46927	480.92425	-700.96222	-612.45773	495.98021	-524.10223	-614.51791	492.95571	-693.54630	
